# xmcd CD database file
#
# Track frame offsets:
#	150
#	23195
#	37392
#	65222
#	88317
#	100012
#	125587
#	141535
#	170617
#	199250
#	221020
#
# Disc length: 3152 seconds
#
# Revision: 0
# Processed by: cddbd v1.5PL3 Copyright (c) Steve Scherf et al.
# Submitted via: CDex 1.51
#
DISCID=b50c4e0b
DTITLE=Bill Frisell - a collection
DYEAR=2000
DGENRE=Jazz
TTITLE0=GIMME A HOLLER
TTITLE1=VERONA
TTITLE2=SHENANDOAH
TTITLE3=EGG RADIO
TTITLE4=GOOD DOG, HAPPY MAN
TTITLE5=HAVE A LITTLE FAITH IN ME
TTITLE6=KEEP YOUR EYES OPEN
TTITLE7=WILDWOOD FLOWER
TTITLE8=STRANGE MEETING
TTITLE9=JUST LIKE A WOMAN
TTITLE10=WHEN I FALL IN LOVE
EXTD=YEAR: 2000
EXTT0=
EXTT1=
EXTT2=
EXTT3=
EXTT4=
EXTT5=
EXTT6=
EXTT7=
EXTT8=
EXTT9=
EXTT10=
PLAYORDER=
